#!OML:ASF I:\Actors\actors\Patient Classification 2\Patient 1\Session 1\actor1.ASF
:FULLY-SPECIFIED
:DEGREES
1002
root -0.138647 18.667 5.62216 2.94522 -1.58096 3.30252
lowerback 11.3501 0.591241 0.684869
upperback 0.73618 0.951629 1.35991
thorax -5.61009 0.466769 0.886125
lowerneck -9.03588 -8.39501 -8.95872
upperneck 35.7566 -10.7464 0.916091
head 14.3593 -5.71516 0.312901
rclavicle 8.74653e-015 1.35174e-014
rhumerus -37.7652 3.84692 -78.2367
rradius 67.6192
rwrist -26.9457
rhand -13.4129 -70.481
rfingers 7.12502
rthumb 12.6951 -259.925
lclavicle 8.74653e-015 1.35174e-014
lhumerus -47.5638 -17.4448 99.2946
lradius 69.8879
lwrist 27.344
lhand -8.1557 -10.2752
lfingers 7.12502
lthumb 17.759 18.9338
rfemur -1.05627 4.19401 8.89767
rtibia 7.59497
rfoot -16.9851 -10.0086
rtoes -8.54877
lfemur -8.28443 -0.0959983 -19.0641
ltibia 23.5048
lfoot -20.6749 12.8135
ltoes -54.9241
1003
root -0.14359 18.6658 5.63861 2.72911 -1.73282 3.07408
lowerback 11.0772 0.64992 0.446925
upperback 0.595989 0.993551 1.2823
thorax -5.60795 0.492721 0.934315
lowerneck -8.93715 -8.36085 -9.16531
upperneck 36.1008 -10.8203 1.30284
head 14.5485 -5.72926 0.48515
rclavicle 1.03368e-014 1.59028e-015
rhumerus -38.7437 3.67068 -78.7179
rradius 68.0213
rwrist -26.9012
rhand -14.2717 -69.9237
rfingers 7.12502
rthumb 11.8672 -260.433
lclavicle 1.03368e-014 1.59028e-015
lhumerus -47.6051 -17.0796 98.9906
lradius 69.4909
lwrist 27.0512
lhand -8.12145 -10.3575
lfingers 7.12502
lthumb 17.792 18.8486
rfemur -0.277075 4.39511 9.17012
rtibia 6.53299
rfoot -16.7004 -10.2396
rtoes -8.50132
lfemur -7.91896 -0.17385 -18.819
ltibia 23.4598
lfoot -20.8291 13.0015
ltoes -54.9821
1004
root -0.148049 18.6633 5.6522 2.50119 -1.89706 2.88967
lowerback 11.042 0.729687 0.294067
upperback 0.329275 1.07404 1.11784
thorax -5.86982 0.534473 0.834745
lowerneck -8.66506 -8.32849 -9.26418
upperneck 36.5117 -10.9065 1.5835
head 14.7169 -5.75214 0.604609
rclavicle -9.93923e-017 1.59028e-015
rhumerus -39.9013 3.34769 -79.2492
rradius 68.4269
rwrist -26.7041
rhand -13.3183 -70.6206
rfingers 7.12502
rthumb 12.7864 -259.791
lclavicle -9.93923e-017 1.59028e-015
lhumerus -47.9265 -16.8582 98.7118
lradius 69.1761
lwrist 26.6626
lhand -8.28989 -10.4121
lfingers 7.12502
lthumb 17.6299 18.8086
rfemur 0.549055 4.60772 9.39664
rtibia 5.37947
rfoot -16.3961 -10.481
rtoes -8.0512
lfemur -7.54756 -0.23779 -18.6257
ltibia 23.4057
lfoot -21.021 13.1597
ltoes -54.9237
1005
root -0.152862 18.6619 5.66516 2.27996 -2.0357 2.74046
lowerback 10.4868 0.741704 -0.155175
upperback 0.430949 1.03042 1.12741
thorax -5.45866 0.524839 1.11109
lowerneck -8.77912 -8.27105 -9.17097
upperneck 36.7013 -10.821 1.5128
head 14.8138 -5.71311 0.564886
rclavicle 1.02374e-014 7.15625e-015
rhumerus -40.3571 3.35696 -79.6414
rradius 68.7492
rwrist -26.5407
rhand -12.315 -71.2798
rfingers 7.12502
rthumb 13.7535 -259.195
lclavicle 1.02374e-014 7.15625e-015
lhumerus -47.584 -16.3185 98.356
lradius 68.7762
lwrist 26.2746
lhand -8.43039 -10.4267
lfingers 7.12502
lthumb 17.4947 18.806
rfemur 1.44688 4.79039 9.59775
rtibia 4.08114
rfoot -15.9868 -10.7999
rtoes -7.76175
lfemur -7.1855 -0.379541 -18.4733
ltibia 23.3439
lfoot -21.2515 13.3327
ltoes -54.8347
1006
root -0.159072 18.6611 5.67976 2.08652 -2.15402 2.57075
lowerback 10.4706 0.797827 -0.286572
upperback 0.14141 1.08226 0.957338
thorax -5.75418 0.553164 0.998122
lowerneck -8.47263 -8.22948 -9.09669
upperneck 37.0231 -10.8724 1.62609
head 14.9045 -5.72081 0.598935
rclavicle 2.03754e-014 -4.77083e-015
rhumerus -41.5838 3.09152 -80.1877
rradius 69.2887
rwrist -26.4129
rhand -12.2349 -71.4101
rfingers 7.12502
rthumb 13.8307 -259.07
lclavicle 2.03754e-014 -4.77083e-015
lhumerus -47.931 -16.0324 98.0801
lradius 68.4505
lwrist 26.1017
lhand -8.49783 -10.4376
lfingers 7.12502
lthumb 17.4298 18.8009
rfemur 2.49876 4.94666 9.83797
rtibia 2.44523
rfoot -15.3983 -11.233
rtoes -7.68655
lfemur -6.84297 -0.515282 -18.2925
ltibia 23.2697
lfoot -21.4183 13.525
ltoes -54.8909
1007
root -0.165856 18.6602 5.69512 1.91858 -2.24056 2.46138
lowerback 9.88355 0.815329 -0.726289
upperback 0.231267 1.05216 0.925929
thorax -5.33648 0.548302 1.22471
lowerneck -8.53927 -8.18447 -9.0276
upperneck 37.1259 -10.8613 1.72283
head 14.9694 -5.6959 0.623418
rclavicle 4.96962e-016 -6.36111e-015
rhumerus -42.1717 3.0012 -80.5977
rradius 69.8294
rwrist -26.4358
rhand -13.0273 -70.8931
rfingers 7.12502
rthumb 13.0669 -259.536
lclavicle 4.96962e-016 -6.36111e-015
lhumerus -47.6231 -15.558 97.7287
lradius 68.0745
lwrist 26.0084
lhand -8.52316 -10.3213
lfingers 7.12502
lthumb 17.4054 18.9194
rfemur 3.92866 5.06132 10.0167
rtibia -1.74931e-014
rfoot -14.4574 -11.923
rtoes -7.71185
lfemur -6.53567 -0.603177 -18.1714
ltibia 23.1807
lfoot -21.4956 13.6929
ltoes -55.076
1008
root -0.172318 18.6596 5.70896 1.74911 -2.3119 2.39554
lowerback 9.72795 0.858093 -1.04759
upperback 0.0268409 1.06732 0.796268
thorax -5.46743 0.564317 1.26877
lowerneck -8.3479 -8.1454 -8.97106
upperneck 37.4132 -10.8943 1.82213
head 15.0705 -5.69699 0.653021
rclavicle 2.31584e-014 1.59028e-014
rhumerus -43.2784 2.75828 -81.0531
rradius 70.5068
rwrist -26.4875
rhand -13.8447 -70.3886
rfingers 7.12502
rthumb 12.2789 -259.992
lclavicle 2.31584e-014 1.59028e-014
lhumerus -47.7621 -15.1716 97.441
lradius 67.6778
lwrist 25.7939
lhand -8.49604 -10.2845
lfingers 7.12502
lthumb 17.4315 18.9539
rfemur 4.13604 5.16244 10.1266
rtibia -8.74653e-015
rfoot -14.5221 -11.8636
rtoes -7.60857
lfemur -6.22677 -0.740502 -18.0955
ltibia 23.0757
lfoot -21.5926 13.8225
ltoes -55.1201
1009
root -0.179129 18.6576 5.72352 1.55695 -2.39268 2.28259
lowerback 9.58222 0.902021 -1.29665
upperback -0.147517 1.0932 0.684571
thorax -5.57186 0.584123 1.28934
lowerneck -8.16954 -8.09741 -8.89753
upperneck 37.719 -10.9022 1.88143
head 15.1784 -5.68954 0.666916
rclavicle -1.32689e-014 2.38542e-015
rhumerus -44.355 2.48808 -81.4537
rradius 71.2416
rwrist -26.3922
rhand -13.2183 -71.0167
rfingers 7.12502
rthumb 12.8828 -259.401
lclavicle -1.32689e-014 2.38542e-015
lhumerus -47.8829 -14.7472 97.1485
lradius 67.2822
lwrist 25.5031
lhand -8.43821 -10.3812
lfingers 7.12502
lthumb 17.4872 18.8522
rfemur 4.38039 5.27736 10.2974
rtibia 3.97569e-015
rfoot -14.6344 -11.7813
rtoes -7.22007
lfemur -5.86141 -0.836682 -17.9545
ltibia 22.9486
lfoot -21.7026 13.8746
ltoes -54.9956
1010
root -0.186117 18.6547 5.73852 1.39052 -2.47918 2.18003
lowerback 9.01337 0.922042 -1.70468
upperback -0.0385823 1.08274 0.668875
thorax -5.14436 0.586036 1.51204
lowerneck -8.16752 -8.04237 -8.81201
upperneck 37.8369 -10.8453 1.87202
head 15.2235 -5.65717 0.656263
rclavicle -1.42131e-014 -1.35174e-014
rhumerus -44.9765 2.37474 -81.7312
rradius 71.9922
rwrist -26.1419
rhand -13.2707 -71.1209
rfingers 7.12502
rthumb 12.8322 -259.294
lclavicle -1.42131e-014 -1.35174e-014
lhumerus -47.6181 -14.2649 96.8357
lradius 66.9506
lwrist 25.2578
lhand -8.37813 -10.3968
lfingers 7.12502
lthumb 17.545 18.8315
rfemur 4.60131 5.39217 10.4592
rtibia -4.77083e-015
rfoot -14.724 -11.7218
rtoes -7.04786
lfemur -5.512 -0.860813 -17.816
ltibia 22.798
lfoot -21.785 13.8782
ltoes -54.8614
1011
root -0.193903 18.6521 5.75188 1.22417 -2.52665 2.0903
lowerback 9.07189 1.00554 -1.79754
upperback -0.331044 1.17024 0.449324
thorax -5.48473 0.633731 1.32035
lowerneck -7.71998 -8.01561 -8.79237
upperneck 38.1099 -10.9342 2.04259
head 15.2739 -5.68309 0.725894
rclavicle 7.57867e-015 2.38542e-015
rhumerus -46.3539 1.93543 -82.0879
rradius 72.9553
rwrist -25.7503
rhand -13.762 -70.8858
rfingers 7.12502
rthumb 12.3586 -259.499
lclavicle 7.57867e-015 2.38542e-015
lhumerus -48.0727 -14.2251 96.5975
lradius 66.7563
lwrist 25.0627
lhand -8.27054 -10.3515
lfingers 7.12502
lthumb 17.6485 18.8675
rfemur 4.82133 5.46717 10.6124
rtibia 2.70347e-014
rfoot -14.7784 -11.7172
rtoes -7.30214
lfemur -5.1678 -1.00505 -17.7003
ltibia 22.6313
lfoot -21.9248 13.9087
ltoes -54.6669
1012
root -0.202387 18.6499 5.76385 1.042 -2.48701 1.9837
lowerback 8.57135 1.01219 -2.10863
upperback -0.154371 1.1563 0.416348
thorax -5.02258 0.629442 1.4716
lowerneck -7.82984 -7.9866 -8.76469
upperneck 38.1649 -10.9051 2.084
head 15.3253 -5.66047 0.736769
rclavicle -1.58779e-014 -1.35174e-014
rhumerus -46.9028 1.73173 -82.2265
rradius 73.9288
rwrist -25.2391
rhand -11.4843 -72.4994
rfingers 7.12502
rthumb 14.5539 -258.031
lclavicle -1.58779e-014 -1.35174e-014
lhumerus -47.6524 -13.918 96.2846
lradius 66.4307
lwrist 24.8247
lhand -8.14215 -10.4
lfingers 7.12502
lthumb 17.7721 18.8079
rfemur 5.08749 5.45809 10.7914
rtibia 6.36111e-015
rfoot -14.8456 -11.7064
rtoes -7.55791
lfemur -4.81674 -1.26714 -17.5712
ltibia 22.4777
lfoot -22.0839 13.9082
ltoes -54.4577
1013
root -0.210072 18.6495 5.77395 0.920527 -2.4094 1.87643
lowerback 8.33649 1.04878 -2.27993
upperback -0.186573 1.18821 0.31379
thorax -4.92674 0.64765 1.4603
lowerneck -7.70651 -7.98432 -8.74213
upperneck 38.3079 -10.9442 2.13251
head 15.3733 -5.67169 0.750103
rclavicle -3.65267e-014 -1.59028e-015
rhumerus -47.7533 1.38289 -82.3074
rradius 75.0265
rwrist -24.5364
rhand -14.0383 -70.4788
rfingers 7.12502
rthumb 12.0922 -259.891
lclavicle -3.65267e-014 -1.59028e-015
lhumerus -47.5969 -13.8005 96.0601
lradius 66.1682
lwrist 24.5742
lhand -8.13715 -10.411
lfingers 7.12502
lthumb 17.7769 18.7965
rfemur 5.29477 5.40116 10.9581
rtibia 2.14687e-014
rfoot -14.9056 -11.6755
rtoes -7.65007
lfemur -4.5574 -1.55853 -17.445
ltibia 22.3554
lfoot -22.1712 13.9491
ltoes -54.3857
